<svg width="466" height="466" viewBox="0 0 466 466" fill="none" xmlns="http://www.w3.org/2000/svg">
<g clip-path="url(#clip0_251_217)">
<path d="M466 233C466.081 288 446.626 341.242 411.104 383.233C409.814 384.764 408.5 386.272 407.161 387.772C391.412 405.484 373.066 420.705 352.749 432.912C348.089 435.71 343.327 438.346 338.463 440.821C337.971 441.071 337.471 441.321 336.979 441.563C336.391 441.862 335.794 442.152 335.198 442.442C322.889 448.467 310.067 453.383 296.886 457.131C295.515 457.518 294.142 457.895 292.766 458.26C275.426 462.848 257.613 465.416 239.684 465.911C238.748 465.936 237.829 465.952 236.942 465.968C236.628 465.976 236.322 465.984 236.015 465.984C235.008 465.992 234.008 466 233 466C214.105 466.014 195.279 463.732 176.935 459.203C175.097 458.752 173.267 458.276 171.444 457.776C161.847 455.156 152.429 451.916 143.251 448.078C138.413 446.062 133.662 443.888 128.997 441.555C127.94 441.023 126.884 440.491 125.844 439.943C125.401 439.725 124.965 439.491 124.53 439.265C99.6646 426.141 77.3659 408.646 58.7015 387.618C57.4115 386.175 56.1457 384.708 54.8961 383.233C34.3314 358.85 18.9914 330.505 9.82636 299.953C0.661278 269.402 -2.1338 237.293 1.61426 205.617C5.36231 173.942 15.5737 143.372 31.6159 115.803C47.6582 88.234 69.1897 64.252 94.8769 45.3423C96.1992 44.3667 97.5295 43.3993 98.8759 42.456C99.1419 42.2705 99.4079 42.0851 99.674 41.8997C123.331 25.3285 149.885 13.3372 177.959 6.54656C179.555 6.15151 181.151 5.78065 182.764 5.43397C213.173 -1.21766 244.599 -1.76848 275.222 3.81345C276.827 4.11175 278.431 4.41812 280.027 4.74868C307.851 10.4556 334.387 21.2314 358.312 36.5383C358.844 36.8769 359.376 37.2155 359.908 37.5702C360.981 38.2636 362.053 38.9731 363.109 39.6906C394.803 60.9978 420.766 89.7765 438.71 123.489C456.653 157.201 466.026 194.81 466 233Z" fill="#F2F2F2"/>
<path d="M174.145 353.539L99.674 360.15L98.8759 360.223V42.456C99.1419 42.2706 99.4079 42.0851 99.674 41.8997C115.195 31.0436 131.984 22.1251 149.668 15.3425L153.474 67.828L153.82 72.6331L157.585 124.683L158.746 140.695L174.008 351.685L174.145 353.539Z" fill="#CCCCCC"/>
<path d="M358.312 36.5383C358.844 36.8769 359.376 37.2155 359.908 37.5702V360.223L358.312 360.078L284.647 353.539L284.784 351.685L300.046 140.695L301.207 124.683L304.972 72.6331L305.319 67.828L309.31 12.7868C326.52 18.7523 342.967 26.7244 358.312 36.5383Z" fill="#CCCCCC"/>
<path d="M358.312 36.5383V364.625C358.312 370.922 353.975 376.041 348.637 376.041H109.349C104.931 376.041 101.182 372.526 100.045 367.729C99.7967 366.713 99.6722 365.671 99.674 364.625V41.8997C99.408 42.0851 99.1419 42.2706 98.8758 42.456C97.5294 43.3993 96.1992 44.3667 94.8769 45.3423V364.625C94.8055 369.408 96.5916 374.032 99.8594 377.525C101.573 379.32 103.74 380.618 106.132 381.282C107.18 381.567 108.262 381.71 109.349 381.709H348.637C349.726 381.71 350.811 381.566 351.862 381.282C358.296 379.548 363.109 372.744 363.109 364.625V39.6906C362.053 38.9731 360.981 38.2636 359.908 37.5702C359.376 37.2155 358.844 36.8769 358.312 36.5383Z" fill="#CCCCCC"/>
<path d="M360.713 67.8312H97.2756V72.6355H360.713V67.8312Z" fill="#CCCCCC"/>
<path d="M177.959 6.54658C179.555 6.15153 181.151 5.78067 182.764 5.43399V135.89H177.959V6.54658Z" fill="#CCCCCC"/>
<path d="M275.222 3.81345C276.827 4.11175 278.431 4.41812 280.027 4.74867V135.89H275.222V3.81345Z" fill="#CCCCCC"/>
<path d="M390.739 351.685H75.2534C69.5186 351.685 64.0187 353.963 59.9636 358.018C55.9085 362.073 53.6303 367.573 53.6303 373.308C53.6303 379.043 55.9085 384.543 59.9636 388.598C64.0187 392.653 69.5186 394.931 75.2534 394.931H390.739C393.809 394.932 396.845 394.277 399.642 393.01C402.44 391.744 404.934 389.894 406.96 387.586C407.877 386.543 408.692 385.414 409.395 384.216C409.939 383.298 410.41 382.338 410.806 381.346C412.123 378.066 412.615 374.512 412.239 370.997C411.863 367.482 410.631 364.113 408.65 361.186C406.669 358.258 404.001 355.861 400.878 354.204C397.755 352.548 394.273 351.683 390.739 351.685Z" fill="#CCCCCC"/>
<path d="M360.713 124.682H98.8771V140.697H360.713V124.682Z" fill="#CCCCCC"/>
<path d="M227.393 119.878H232.197C233.354 119.878 234.499 120.106 235.568 120.548C236.636 120.991 237.607 121.64 238.425 122.458C239.243 123.276 239.892 124.247 240.334 125.315C240.777 126.384 241.005 127.529 241.005 128.686H218.585C218.585 126.35 219.513 124.11 221.164 122.458C222.816 120.806 225.057 119.878 227.393 119.878Z" fill="#CCCCCC"/>
<path d="M411.104 383.233C404.1 391.532 396.525 399.331 388.433 406.573H77.5673C69.4755 399.331 61.9 391.532 54.8961 383.233H411.104Z" fill="#3F3D56"/>
<path d="M259.025 302.392H206.685C206.403 302.389 206.122 302.433 205.854 302.521C205.286 302.697 204.789 303.05 204.437 303.529C204.084 304.008 203.894 304.587 203.895 305.182V387.868H261.823V305.182C261.822 304.815 261.75 304.451 261.609 304.113C261.468 303.774 261.262 303.466 261.002 303.207C260.742 302.948 260.434 302.743 260.095 302.603C259.755 302.463 259.392 302.391 259.025 302.392ZM239.216 343.187C239.218 344.528 238.776 345.833 237.958 346.896C237.178 347.928 236.094 348.689 234.859 349.072C233.623 349.455 232.298 349.441 231.071 349.032C229.844 348.622 228.777 347.838 228.019 346.789C227.262 345.741 226.852 344.481 226.848 343.187V333.593C226.864 331.963 227.522 330.405 228.68 329.258C229.838 328.11 231.402 327.466 233.032 327.466C234.662 327.466 236.227 328.11 237.385 329.258C238.543 330.405 239.201 331.963 239.216 333.593V343.187Z" fill="#2F2E41"/>
<path d="M203.718 385.224V393.198C203.718 393.611 203.881 394.008 204.173 394.301C204.465 394.594 204.86 394.76 205.274 394.762H260.444C260.857 394.758 261.252 394.592 261.543 394.299C261.835 394.006 261.999 393.611 262 393.198V385.224H203.718Z" fill="#3F3D56"/>
<path d="M345.695 173.355H121.966C120.044 173.358 118.201 174.122 116.841 175.48C115.481 176.839 114.715 178.681 114.71 180.603V331.578C114.712 333.502 115.477 335.346 116.837 336.707C118.198 338.067 120.042 338.832 121.966 338.834H345.695C347.619 338.832 349.463 338.067 350.824 336.707C352.184 335.346 352.949 333.502 352.951 331.578V180.603C352.946 178.681 352.18 176.839 350.82 175.48C349.46 174.122 347.617 173.358 345.695 173.355Z" fill="#3F3D56"/>
<path d="M343.824 178.596H123.829C122.799 178.598 121.813 179.008 121.086 179.737C120.359 180.465 119.951 181.453 119.951 182.482V329.715C119.952 330.743 120.362 331.728 121.088 332.455C121.815 333.182 122.801 333.591 123.829 333.593H343.824C344.852 333.591 345.837 333.182 346.564 332.455C347.291 331.728 347.7 330.743 347.702 329.715V182.482C347.702 181.453 347.294 180.465 346.567 179.737C345.84 179.008 344.853 178.598 343.824 178.596Z" fill="#0284C7"/>
<path d="M303.335 394.633L301.304 384.982C301.219 384.589 301.038 384.222 300.776 383.917C300.514 383.611 300.18 383.376 299.804 383.233C299.532 383.126 299.242 383.071 298.949 383.071H172.122C171.829 383.071 171.539 383.126 171.267 383.233C170.891 383.376 170.557 383.611 170.295 383.917C170.033 384.222 169.852 384.589 169.767 384.982L167.736 394.633C167.662 394.983 167.668 395.345 167.752 395.693C167.836 396.041 167.997 396.366 168.222 396.644C168.448 396.922 168.733 397.146 169.056 397.3C169.379 397.454 169.732 397.535 170.09 397.535H300.973C301.332 397.537 301.687 397.457 302.011 397.302C302.335 397.147 302.62 396.921 302.844 396.64C303.069 396.363 303.231 396.039 303.316 395.692C303.401 395.345 303.408 394.983 303.335 394.633Z" fill="#2F2E41"/>
<path d="M176.689 384.809H173.445C173.227 384.809 173.051 384.986 173.051 385.203V386.834C173.051 387.052 173.227 387.228 173.445 387.228H176.689C176.906 387.228 177.082 387.052 177.082 386.834V385.203C177.082 384.986 176.906 384.809 176.689 384.809Z" fill="#3F3D56"/>
<path d="M184.751 384.809H181.507C181.29 384.809 181.114 384.986 181.114 385.203V386.834C181.114 387.052 181.29 387.228 181.507 387.228H184.751C184.969 387.228 185.145 387.052 185.145 386.834V385.203C185.145 384.986 184.969 384.809 184.751 384.809Z" fill="#3F3D56"/>
<path d="M192.813 384.809H189.569C189.352 384.809 189.176 384.986 189.176 385.203V386.834C189.176 387.052 189.352 387.228 189.569 387.228H192.813C193.031 387.228 193.207 387.052 193.207 386.834V385.203C193.207 384.986 193.031 384.809 192.813 384.809Z" fill="#3F3D56"/>
<path d="M200.876 384.809H197.632C197.414 384.809 197.238 384.986 197.238 385.203V386.834C197.238 387.052 197.414 387.228 197.632 387.228H200.876C201.093 387.228 201.269 387.052 201.269 386.834V385.203C201.269 384.986 201.093 384.809 200.876 384.809Z" fill="#3F3D56"/>
<path d="M208.938 384.809H205.694C205.477 384.809 205.3 384.986 205.3 385.203V386.834C205.3 387.052 205.477 387.228 205.694 387.228H208.938C209.155 387.228 209.332 387.052 209.332 386.834V385.203C209.332 384.986 209.155 384.809 208.938 384.809Z" fill="#3F3D56"/>
<path d="M217 384.809H213.756C213.539 384.809 213.363 384.986 213.363 385.203V386.834C213.363 387.052 213.539 387.228 213.756 387.228H217C217.218 387.228 217.394 387.052 217.394 386.834V385.203C217.394 384.986 217.218 384.809 217 384.809Z" fill="#3F3D56"/>
<path d="M225.063 384.809H221.819C221.601 384.809 221.425 384.986 221.425 385.203V386.834C221.425 387.052 221.601 387.228 221.819 387.228H225.063C225.28 387.228 225.456 387.052 225.456 386.834V385.203C225.456 384.986 225.28 384.809 225.063 384.809Z" fill="#3F3D56"/>
<path d="M233.125 384.809H229.881C229.663 384.809 229.487 384.986 229.487 385.203V386.834C229.487 387.052 229.663 387.228 229.881 387.228H233.125C233.342 387.228 233.518 387.052 233.518 386.834V385.203C233.518 384.986 233.342 384.809 233.125 384.809Z" fill="#3F3D56"/>
<path d="M241.187 384.809H237.943C237.726 384.809 237.55 384.986 237.55 385.203V386.834C237.55 387.052 237.726 387.228 237.943 387.228H241.187C241.404 387.228 241.581 387.052 241.581 386.834V385.203C241.581 384.986 241.404 384.809 241.187 384.809Z" fill="#3F3D56"/>
<path d="M249.249 384.809H246.005C245.788 384.809 245.612 384.986 245.612 385.203V386.834C245.612 387.052 245.788 387.228 246.005 387.228H249.249C249.467 387.228 249.643 387.052 249.643 386.834V385.203C249.643 384.986 249.467 384.809 249.249 384.809Z" fill="#3F3D56"/>
<path d="M257.312 384.809H254.068C253.85 384.809 253.674 384.986 253.674 385.203V386.834C253.674 387.052 253.85 387.228 254.068 387.228H257.312C257.529 387.228 257.705 387.052 257.705 386.834V385.203C257.705 384.986 257.529 384.809 257.312 384.809Z" fill="#3F3D56"/>
<path d="M265.374 384.809H262.13C261.913 384.809 261.736 384.986 261.736 385.203V386.834C261.736 387.052 261.913 387.228 262.13 387.228H265.374C265.591 387.228 265.768 387.052 265.768 386.834V385.203C265.768 384.986 265.591 384.809 265.374 384.809Z" fill="#3F3D56"/>
<path d="M273.436 384.809H270.192C269.975 384.809 269.799 384.986 269.799 385.203V386.834C269.799 387.052 269.975 387.228 270.192 387.228H273.436C273.654 387.228 273.83 387.052 273.83 386.834V385.203C273.83 384.986 273.654 384.809 273.436 384.809Z" fill="#3F3D56"/>
<path d="M281.499 384.809H278.255C278.037 384.809 277.861 384.986 277.861 385.203V386.834C277.861 387.052 278.037 387.228 278.255 387.228H281.499C281.716 387.228 281.892 387.052 281.892 386.834V385.203C281.892 384.986 281.716 384.809 281.499 384.809Z" fill="#3F3D56"/>
<path d="M289.561 384.809H286.317C286.099 384.809 285.923 384.986 285.923 385.203V386.834C285.923 387.052 286.099 387.228 286.317 387.228H289.561C289.778 387.228 289.954 387.052 289.954 386.834V385.203C289.954 384.986 289.778 384.809 289.561 384.809Z" fill="#3F3D56"/>
<path d="M297.623 384.809H294.379C294.162 384.809 293.986 384.986 293.986 385.203V386.834C293.986 387.052 294.162 387.228 294.379 387.228H297.623C297.84 387.228 298.017 387.052 298.017 386.834V385.203C298.017 384.986 297.84 384.809 297.623 384.809Z" fill="#3F3D56"/>
<path d="M176.594 388.841H173.35C173.132 388.841 172.956 389.017 172.956 389.234V390.866C172.956 391.083 173.132 391.259 173.35 391.259H176.594C176.811 391.259 176.987 391.083 176.987 390.866V389.234C176.987 389.017 176.811 388.841 176.594 388.841Z" fill="#3F3D56"/>
<path d="M184.656 388.841H181.412C181.195 388.841 181.018 389.017 181.018 389.234V390.866C181.018 391.083 181.195 391.259 181.412 391.259H184.656C184.873 391.259 185.049 391.083 185.049 390.866V389.234C185.049 389.017 184.873 388.841 184.656 388.841Z" fill="#3F3D56"/>
<path d="M192.718 388.841H189.474C189.257 388.841 189.081 389.017 189.081 389.234V390.866C189.081 391.083 189.257 391.259 189.474 391.259H192.718C192.935 391.259 193.112 391.083 193.112 390.866V389.234C193.112 389.017 192.935 388.841 192.718 388.841Z" fill="#3F3D56"/>
<path d="M200.78 388.841H197.536C197.319 388.841 197.143 389.017 197.143 389.234V390.866C197.143 391.083 197.319 391.259 197.536 391.259H200.78C200.998 391.259 201.174 391.083 201.174 390.866V389.234C201.174 389.017 200.998 388.841 200.78 388.841Z" fill="#3F3D56"/>
<path d="M208.843 388.841H205.599C205.381 388.841 205.205 389.017 205.205 389.234V390.866C205.205 391.083 205.381 391.259 205.599 391.259H208.843C209.06 391.259 209.236 391.083 209.236 390.866V389.234C209.236 389.017 209.06 388.841 208.843 388.841Z" fill="#3F3D56"/>
<path d="M216.905 388.841H213.661C213.444 388.841 213.267 389.017 213.267 389.234V390.866C213.267 391.083 213.444 391.259 213.661 391.259H216.905C217.122 391.259 217.299 391.083 217.299 390.866V389.234C217.299 389.017 217.122 388.841 216.905 388.841Z" fill="#3F3D56"/>
<path d="M224.967 388.841H221.723C221.506 388.841 221.33 389.017 221.33 389.234V390.866C221.33 391.083 221.506 391.259 221.723 391.259H224.967C225.185 391.259 225.361 391.083 225.361 390.866V389.234C225.361 389.017 225.185 388.841 224.967 388.841Z" fill="#3F3D56"/>
<path d="M233.03 388.841H229.786C229.568 388.841 229.392 389.017 229.392 389.234V390.866C229.392 391.083 229.568 391.259 229.786 391.259H233.03C233.247 391.259 233.423 391.083 233.423 390.866V389.234C233.423 389.017 233.247 388.841 233.03 388.841Z" fill="#3F3D56"/>
<path d="M241.092 388.841H237.848C237.631 388.841 237.454 389.017 237.454 389.234V390.866C237.454 391.083 237.631 391.259 237.848 391.259H241.092C241.309 391.259 241.485 391.083 241.485 390.866V389.234C241.485 389.017 241.309 388.841 241.092 388.841Z" fill="#3F3D56"/>
<path d="M249.154 388.841H245.91C245.693 388.841 245.517 389.017 245.517 389.234V390.866C245.517 391.083 245.693 391.259 245.91 391.259H249.154C249.372 391.259 249.548 391.083 249.548 390.866V389.234C249.548 389.017 249.372 388.841 249.154 388.841Z" fill="#3F3D56"/>
<path d="M257.216 388.841H253.972C253.755 388.841 253.579 389.017 253.579 389.234V390.866C253.579 391.083 253.755 391.259 253.972 391.259H257.216C257.434 391.259 257.61 391.083 257.61 390.866V389.234C257.61 389.017 257.434 388.841 257.216 388.841Z" fill="#3F3D56"/>
<path d="M265.279 388.841H262.035C261.817 388.841 261.641 389.017 261.641 389.234V390.866C261.641 391.083 261.817 391.259 262.035 391.259H265.279C265.496 391.259 265.672 391.083 265.672 390.866V389.234C265.672 389.017 265.496 388.841 265.279 388.841Z" fill="#3F3D56"/>
<path d="M273.341 388.841H270.097C269.88 388.841 269.703 389.017 269.703 389.234V390.866C269.703 391.083 269.88 391.259 270.097 391.259H273.341C273.558 391.259 273.735 391.083 273.735 390.866V389.234C273.735 389.017 273.558 388.841 273.341 388.841Z" fill="#3F3D56"/>
<path d="M281.403 388.841H278.159C277.942 388.841 277.766 389.017 277.766 389.234V390.866C277.766 391.083 277.942 391.259 278.159 391.259H281.403C281.621 391.259 281.797 391.083 281.797 390.866V389.234C281.797 389.017 281.621 388.841 281.403 388.841Z" fill="#3F3D56"/>
<path d="M289.466 388.841H286.222C286.004 388.841 285.828 389.017 285.828 389.234V390.866C285.828 391.083 286.004 391.259 286.222 391.259H289.466C289.683 391.259 289.859 391.083 289.859 390.866V389.234C289.859 389.017 289.683 388.841 289.466 388.841Z" fill="#3F3D56"/>
<path d="M297.528 388.841H294.284C294.066 388.841 293.89 389.017 293.89 389.234V390.866C293.89 391.083 294.066 391.259 294.284 391.259H297.528C297.745 391.259 297.921 391.083 297.921 390.866V389.234C297.921 389.017 297.745 388.841 297.528 388.841Z" fill="#3F3D56"/>
<path d="M243.511 393.678H212.049C211.831 393.678 211.655 393.854 211.655 394.072V395.703C211.655 395.92 211.831 396.097 212.049 396.097H243.511C243.728 396.097 243.904 395.92 243.904 395.703V394.072C243.904 393.854 243.728 393.678 243.511 393.678Z" fill="#3F3D56"/>
<path d="M332.769 198.878H126.92C126.706 198.873 126.503 198.785 126.353 198.632C126.203 198.479 126.12 198.273 126.12 198.059C126.12 197.845 126.203 197.64 126.353 197.487C126.503 197.334 126.706 197.245 126.92 197.241H332.769C332.983 197.245 333.187 197.334 333.337 197.487C333.486 197.64 333.57 197.845 333.57 198.059C333.57 198.273 333.486 198.479 333.337 198.632C333.187 198.785 332.983 198.873 332.769 198.878Z" fill="#3F3D56"/>
<path d="M140.933 193.061C143.582 193.061 145.73 190.865 145.73 188.157C145.73 185.448 143.582 183.252 140.933 183.252C138.283 183.252 136.135 185.448 136.135 188.157C136.135 190.865 138.283 193.061 140.933 193.061Z" fill="#3F3D56"/>
<path d="M157.506 193.061C160.155 193.061 162.303 190.865 162.303 188.157C162.303 185.448 160.155 183.252 157.506 183.252C154.856 183.252 152.708 185.448 152.708 188.157C152.708 190.865 154.856 193.061 157.506 193.061Z" fill="#3F3D56"/>
<path d="M174.078 193.061C176.728 193.061 178.876 190.865 178.876 188.157C178.876 185.448 176.728 183.252 174.078 183.252C171.429 183.252 169.281 185.448 169.281 188.157C169.281 190.865 171.429 193.061 174.078 193.061Z" fill="#3F3D56"/>
<path d="M322.79 184.465H311.019C310.786 184.47 310.565 184.567 310.402 184.733C310.239 184.9 310.148 185.123 310.148 185.356C310.148 185.589 310.239 185.812 310.402 185.979C310.565 186.145 310.786 186.241 311.019 186.247H322.79C323.024 186.244 323.247 186.148 323.412 185.981C323.576 185.815 323.668 185.59 323.668 185.356C323.668 185.122 323.576 184.897 323.412 184.73C323.247 184.564 323.024 184.468 322.79 184.465Z" fill="#3F3D56"/>
<path d="M322.79 187.811H311.019C310.786 187.816 310.564 187.912 310.401 188.079C310.239 188.245 310.147 188.469 310.147 188.702C310.147 188.935 310.239 189.158 310.401 189.325C310.564 189.491 310.786 189.588 311.019 189.593H322.79C323.024 189.59 323.248 189.495 323.413 189.328C323.578 189.161 323.67 188.936 323.67 188.702C323.67 188.467 323.578 188.242 323.413 188.076C323.248 187.909 323.024 187.814 322.79 187.811Z" fill="#3F3D56"/>
<path d="M322.79 191.157H311.019C310.786 191.162 310.565 191.258 310.402 191.425C310.239 191.591 310.148 191.815 310.148 192.048C310.148 192.28 310.239 192.504 310.402 192.67C310.565 192.837 310.786 192.933 311.019 192.938H322.79C323.024 192.935 323.247 192.84 323.412 192.673C323.576 192.506 323.668 192.282 323.668 192.048C323.668 191.813 323.576 191.589 323.412 191.422C323.247 191.255 323.024 191.16 322.79 191.157Z" fill="#3F3D56"/>
<path d="M144.67 217.902H140.44C139.158 217.902 138.118 218.942 138.118 220.224C138.118 221.506 139.158 222.546 140.44 222.546H144.67C145.952 222.546 146.992 221.506 146.992 220.224C146.992 218.942 145.952 217.902 144.67 217.902Z" fill="#E6E6E6"/>
<path d="M193.044 217.902H188.814C187.532 217.902 186.492 218.942 186.492 220.224C186.492 221.506 187.532 222.546 188.814 222.546H193.044C194.326 222.546 195.365 221.506 195.365 220.224C195.365 218.942 194.326 217.902 193.044 217.902Z" fill="#E6E6E6"/>
<path d="M206.749 217.902H202.52C201.237 217.902 200.198 218.942 200.198 220.224C200.198 221.506 201.237 222.546 202.52 222.546H206.749C208.032 222.546 209.071 221.506 209.071 220.224C209.071 218.942 208.032 217.902 206.749 217.902Z" fill="#E6E6E6"/>
<path d="M179.886 217.515H153.598C152.316 217.515 151.276 218.554 151.276 219.837C151.276 221.119 152.316 222.159 153.598 222.159H179.886C181.168 222.159 182.208 221.119 182.208 219.837C182.208 218.554 181.168 217.515 179.886 217.515Z" fill="#E6E6E6"/>
<path d="M244.384 217.515H218.096C216.814 217.515 215.774 218.554 215.774 219.837C215.774 221.119 216.814 222.159 218.096 222.159H244.384C245.666 222.159 246.706 221.119 246.706 219.837C246.706 218.554 245.666 217.515 244.384 217.515Z" fill="#E6E6E6"/>
<path d="M157.569 228.383H153.34C152.057 228.383 151.018 229.422 151.018 230.705C151.018 231.987 152.057 233.027 153.34 233.027H157.569C158.852 233.027 159.891 231.987 159.891 230.705C159.891 229.422 158.852 228.383 157.569 228.383Z" fill="#E6E6E6"/>
<path d="M205.943 228.383H201.714C200.431 228.383 199.392 229.422 199.392 230.705C199.392 231.987 200.431 233.027 201.714 233.027H205.943C207.226 233.027 208.265 231.987 208.265 230.705C208.265 229.422 207.226 228.383 205.943 228.383Z" fill="#E6E6E6"/>
<path d="M219.649 228.383H215.419C214.137 228.383 213.098 229.422 213.098 230.705C213.098 231.987 214.137 233.027 215.419 233.027H219.649C220.931 233.027 221.971 231.987 221.971 230.705C221.971 229.422 220.931 228.383 219.649 228.383Z" fill="#E6E6E6"/>
<path d="M192.785 227.996H166.498C165.215 227.996 164.176 229.035 164.176 230.318C164.176 231.6 165.215 232.64 166.498 232.64H192.785C194.068 232.64 195.107 231.6 195.107 230.318C195.107 229.035 194.068 227.996 192.785 227.996Z" fill="#E6E6E6"/>
<path d="M257.284 227.996H230.996C229.714 227.996 228.674 229.035 228.674 230.318C228.674 231.6 229.714 232.64 230.996 232.64H257.284C258.566 232.64 259.606 231.6 259.606 230.318C259.606 229.035 258.566 227.996 257.284 227.996Z" fill="#E6E6E6"/>
<path d="M170.469 238.864H166.24C164.957 238.864 163.918 239.903 163.918 241.186C163.918 242.468 164.957 243.508 166.24 243.508H170.469C171.751 243.508 172.791 242.468 172.791 241.186C172.791 239.903 171.751 238.864 170.469 238.864Z" fill="#E6E6E6"/>
<path d="M218.843 238.864H214.613C213.331 238.864 212.291 239.903 212.291 241.186C212.291 242.468 213.331 243.508 214.613 243.508H218.843C220.125 243.508 221.165 242.468 221.165 241.186C221.165 239.903 220.125 238.864 218.843 238.864Z" fill="#E6E6E6"/>
<path d="M232.549 238.864H228.319C227.037 238.864 225.997 239.903 225.997 241.186C225.997 242.468 227.037 243.508 228.319 243.508H232.549C233.831 243.508 234.871 242.468 234.871 241.186C234.871 239.903 233.831 238.864 232.549 238.864Z" fill="#E6E6E6"/>
<path d="M205.685 238.477H179.397C178.115 238.477 177.075 239.516 177.075 240.799C177.075 242.081 178.115 243.121 179.397 243.121H205.685C206.967 243.121 208.007 242.081 208.007 240.799C208.007 239.516 206.967 238.477 205.685 238.477Z" fill="#E6E6E6"/>
<path d="M270.183 238.477H243.896C242.613 238.477 241.574 239.516 241.574 240.799C241.574 242.081 242.613 243.121 243.896 243.121H270.183C271.466 243.121 272.505 242.081 272.505 240.799C272.505 239.516 271.466 238.477 270.183 238.477Z" fill="#E6E6E6"/>
<path d="M183.369 249.345H179.139C177.857 249.345 176.817 250.384 176.817 251.667C176.817 252.949 177.857 253.989 179.139 253.989H183.369C184.651 253.989 185.691 252.949 185.691 251.667C185.691 250.384 184.651 249.345 183.369 249.345Z" fill="#E6E6E6"/>
<path d="M231.742 249.345H227.513C226.231 249.345 225.191 250.384 225.191 251.667C225.191 252.949 226.231 253.989 227.513 253.989H231.742C233.025 253.989 234.064 252.949 234.064 251.667C234.064 250.384 233.025 249.345 231.742 249.345Z" fill="#E6E6E6"/>
<path d="M245.448 249.345H241.219C239.936 249.345 238.897 250.384 238.897 251.667C238.897 252.949 239.936 253.989 241.219 253.989H245.448C246.731 253.989 247.77 252.949 247.77 251.667C247.77 250.384 246.731 249.345 245.448 249.345Z" fill="#E6E6E6"/>
<path d="M218.585 248.958H192.297C191.015 248.958 189.975 249.997 189.975 251.28C189.975 252.562 191.015 253.602 192.297 253.602H218.585C219.867 253.602 220.907 252.562 220.907 251.28C220.907 249.997 219.867 248.958 218.585 248.958Z" fill="#E6E6E6"/>
<path d="M193.044 291.022H188.814C187.532 291.022 186.492 292.061 186.492 293.344C186.492 294.626 187.532 295.665 188.814 295.665H193.044C194.326 295.665 195.365 294.626 195.365 293.344C195.365 292.061 194.326 291.022 193.044 291.022Z" fill="#E6E6E6"/>
<path d="M206.749 291.022H202.52C201.237 291.022 200.198 292.061 200.198 293.344C200.198 294.626 201.237 295.665 202.52 295.665H206.749C208.032 295.665 209.071 294.626 209.071 293.344C209.071 292.061 208.032 291.022 206.749 291.022Z" fill="#E6E6E6"/>
<path d="M244.384 291.409H218.096C216.814 291.409 215.774 292.448 215.774 293.731C215.774 295.013 216.814 296.053 218.096 296.053H244.384C245.666 296.053 246.706 295.013 246.706 293.731C246.706 292.448 245.666 291.409 244.384 291.409Z" fill="#E6E6E6"/>
<path d="M144.67 291.022H140.44C139.158 291.022 138.118 292.061 138.118 293.344C138.118 294.626 139.158 295.665 140.44 295.665H144.67C145.952 295.665 146.992 294.626 146.992 293.344C146.992 292.061 145.952 291.022 144.67 291.022Z" fill="#E6E6E6"/>
<path d="M179.886 291.409H153.598C152.316 291.409 151.276 292.448 151.276 293.731C151.276 295.013 152.316 296.053 153.598 296.053H179.886C181.168 296.053 182.208 295.013 182.208 293.731C182.208 292.448 181.168 291.409 179.886 291.409Z" fill="#E6E6E6"/>
<path d="M157.569 280.541H153.34C152.057 280.541 151.018 281.58 151.018 282.863C151.018 284.145 152.057 285.185 153.34 285.185H157.569C158.852 285.185 159.891 284.145 159.891 282.863C159.891 281.58 158.852 280.541 157.569 280.541Z" fill="#E6E6E6"/>
<path d="M205.943 280.541H201.714C200.431 280.541 199.392 281.58 199.392 282.863C199.392 284.145 200.431 285.185 201.714 285.185H205.943C207.226 285.185 208.265 284.145 208.265 282.863C208.265 281.58 207.226 280.541 205.943 280.541Z" fill="#E6E6E6"/>
<path d="M219.649 280.541H215.419C214.137 280.541 213.098 281.58 213.098 282.863C213.098 284.145 214.137 285.185 215.419 285.185H219.649C220.931 285.185 221.971 284.145 221.971 282.863C221.971 281.58 220.931 280.541 219.649 280.541Z" fill="#E6E6E6"/>
<path d="M192.785 280.928H166.498C165.215 280.928 164.176 281.967 164.176 283.25C164.176 284.532 165.215 285.572 166.498 285.572H192.785C194.068 285.572 195.107 284.532 195.107 283.25C195.107 281.967 194.068 280.928 192.785 280.928Z" fill="#E6E6E6"/>
<path d="M170.469 270.06H166.24C164.957 270.06 163.918 271.099 163.918 272.382C163.918 273.664 164.957 274.704 166.24 274.704H170.469C171.751 274.704 172.791 273.664 172.791 272.382C172.791 271.099 171.751 270.06 170.469 270.06Z" fill="#E6E6E6"/>
<path d="M218.843 270.06H214.613C213.331 270.06 212.291 271.099 212.291 272.382C212.291 273.664 213.331 274.704 214.613 274.704H218.843C220.125 274.704 221.165 273.664 221.165 272.382C221.165 271.099 220.125 270.06 218.843 270.06Z" fill="#E6E6E6"/>
<path d="M232.549 270.06H228.319C227.037 270.06 225.997 271.099 225.997 272.382C225.997 273.664 227.037 274.704 228.319 274.704H232.549C233.831 274.704 234.871 273.664 234.871 272.382C234.871 271.099 233.831 270.06 232.549 270.06Z" fill="#E6E6E6"/>
<path d="M205.685 270.447H179.397C178.115 270.447 177.075 271.486 177.075 272.769C177.075 274.051 178.115 275.091 179.397 275.091H205.685C206.967 275.091 208.007 274.051 208.007 272.769C208.007 271.486 206.967 270.447 205.685 270.447Z" fill="#E6E6E6"/>
<path d="M183.369 259.579H179.139C177.857 259.579 176.817 260.618 176.817 261.901C176.817 263.183 177.857 264.223 179.139 264.223H183.369C184.651 264.223 185.691 263.183 185.691 261.901C185.691 260.618 184.651 259.579 183.369 259.579Z" fill="#E6E6E6"/>
<path d="M231.742 259.579H227.513C226.231 259.579 225.191 260.618 225.191 261.901C225.191 263.183 226.231 264.223 227.513 264.223H231.742C233.025 264.223 234.064 263.183 234.064 261.901C234.064 260.618 233.025 259.579 231.742 259.579Z" fill="#E6E6E6"/>
<path d="M245.448 259.579H241.219C239.936 259.579 238.897 260.618 238.897 261.901C238.897 263.183 239.936 264.223 241.219 264.223H245.448C246.731 264.223 247.77 263.183 247.77 261.901C247.77 260.618 246.731 259.579 245.448 259.579Z" fill="#E6E6E6"/>
<path d="M218.585 259.966H192.297C191.015 259.966 189.975 261.006 189.975 262.288C189.975 263.57 191.015 264.61 192.297 264.61H218.585C219.867 264.61 220.907 263.57 220.907 262.288C220.907 261.006 219.867 259.966 218.585 259.966Z" fill="#E6E6E6"/>
<path d="M335.238 442.434C334.746 442.684 334.246 442.934 333.754 443.176C321.016 449.545 310.825 453.165 296.885 457.131C295.708 443.99 294.572 420.891 293.467 406.573C293.177 402.856 292.887 399.736 292.604 397.535C292.533 396.365 292.294 395.211 291.895 394.109L291.943 397.535L292.064 406.573L292.766 458.26C275.426 462.848 257.613 465.416 239.684 465.911C238.748 465.935 237.829 465.952 236.942 465.968C236.628 465.976 236.322 465.984 236.015 465.984C235.007 465.992 234.008 466 233 466C214.105 466.014 195.279 463.732 176.935 459.203C177.33 446.199 177.725 423.359 178.104 406.573C178.184 403.292 178.257 400.236 178.338 397.535C178.491 391.762 178.652 387.602 178.805 386.208C178.67 386.455 178.564 386.717 178.491 386.99C177.744 390.466 177.235 393.989 176.967 397.535C176.685 400.236 176.403 403.292 176.121 406.573C174.621 424.012 173.057 447.723 171.444 457.776C161.847 455.156 152.429 451.916 143.251 448.078C138.413 446.062 133.662 443.888 128.997 441.555C129.883 435.75 130.811 429.244 131.762 422.496C132.504 417.263 133.27 411.886 134.052 406.573C135.261 398.365 136.503 390.319 137.76 383.233C139.598 372.881 141.485 364.56 143.355 360.739C145.129 357.111 146.903 353.531 148.62 350.105C149.217 348.903 149.813 347.718 150.394 346.565C150.531 346.291 150.668 346.025 150.805 345.759C152.039 343.332 153.232 341.01 154.369 338.834C155.344 336.971 156.271 335.214 157.15 333.593C159.278 329.659 161.084 326.522 162.423 324.539C168.018 316.052 176.348 309.733 186.029 306.633L186.271 306.568L186.44 306.641L202.928 301.578L205.338 300.836L206.959 300.336L212.667 295.991L215.771 293.628L218.681 291.411L224.373 287.082L259.614 289.251L266.475 305.77L281.841 311.39L282.107 311.269L282.341 311.172L282.583 311.236C292.263 314.34 300.592 320.658 306.189 329.143C306.947 330.279 307.866 331.779 308.906 333.593C309.793 335.133 310.761 336.891 311.809 338.834C313.3 341.599 314.929 344.719 316.654 348.097C317.033 348.839 317.42 349.597 317.807 350.363C318.525 351.782 319.253 353.23 319.992 354.708C321.709 358.135 323.483 361.714 325.257 365.35C326.797 368.503 328.353 374.985 329.884 383.233C331.15 390.085 332.408 398.164 333.625 406.573C335.222 417.473 333.521 430.526 334.964 440.555C335.052 441.192 335.149 441.813 335.238 442.434Z" fill="#3F3D56"/>
<path d="M233.496 273.896C256.132 273.896 274.482 255.546 274.482 232.91C274.482 210.274 256.132 191.924 233.496 191.924C210.86 191.924 192.51 210.274 192.51 232.91C192.51 255.546 210.86 273.896 233.496 273.896Z" fill="#A0616A"/>
<path d="M301.086 178.596C300.276 176.704 299.198 174.94 297.885 173.355C291.661 165.752 280.342 162.407 268.724 171.404C266.488 170.904 264.156 171.038 261.992 171.791C260.97 172.161 260.013 172.689 259.154 173.355C257.395 174.727 256.022 176.533 255.171 178.596C254.716 179.685 254.418 180.833 254.284 182.006C251.412 180.514 248.373 179.369 245.23 178.596C237.519 176.678 229.456 176.678 221.745 178.596C219.274 179.221 216.895 180.164 214.666 181.401C210.893 183.578 208.724 186.327 208.337 189.383C202.895 189.689 197.236 192.552 193.019 197.244C192.543 197.768 192.084 198.316 191.657 198.88C188.111 203.52 186.205 209.206 186.239 215.045V216.069H187.263C190.068 216.066 192.847 216.609 195.446 217.666C197.13 218.342 198.724 219.222 200.195 220.286C201.156 220.968 202.065 221.723 202.912 222.543C204.875 224.444 206.539 226.633 207.846 229.033C211.195 235.1 212.357 242.134 211.135 248.955C210.855 250.534 210.445 252.087 209.91 253.599C209.148 255.756 208.145 257.82 206.918 259.751C206.87 259.823 206.83 259.896 206.781 259.968C206.241 260.831 205.725 261.71 205.242 262.597C204.879 263.258 204.54 263.935 204.226 264.612C203.307 266.497 202.531 268.448 201.904 270.449C200.782 273.988 200.12 277.657 199.937 281.366C199.88 282.349 199.864 283.333 199.896 284.316C199.944 286.852 200.222 289.378 200.727 291.863C200.799 292.201 200.872 292.532 200.944 292.871L201.533 295.442L202.928 301.578L203.895 305.802L204.79 309.721L206.112 307.826C206.564 307.181 207.701 305.198 209.224 302.392C210.232 300.562 211.401 298.377 212.667 295.991C214.433 292.645 216.367 288.912 218.262 285.187C219.028 283.68 219.786 282.18 220.52 280.713C221.906 277.931 223.212 275.246 224.333 272.86C225.365 270.659 226.244 268.708 226.897 267.144C227.098 268.168 227.268 269.208 227.397 270.256C227.542 271.32 227.647 272.4 227.703 273.481C227.719 273.642 227.727 273.811 227.735 273.973L227.768 274.634L227.776 274.827L228.63 274.94C233.559 275.468 238.528 275.506 243.465 275.053H243.473C250.013 274.561 256.428 273.006 262.468 270.449C265.898 268.961 269.101 266.996 271.981 264.612C273.327 263.498 274.583 262.28 275.738 260.968C276.028 260.638 276.311 260.307 276.585 259.968C278.18 258.008 279.546 255.871 280.656 253.599C281.399 252.1 282.03 250.548 282.543 248.955C285.639 239.579 285.461 227.881 282.011 213.981C282.943 213.802 283.835 213.458 284.647 212.965C287.179 211.442 288.936 208.418 289.484 204.726L290.355 204.959C293.442 203.522 296.191 201.451 298.425 198.881C298.868 198.357 299.282 197.811 299.667 197.244C303.609 191.439 303.642 184.473 301.086 178.596Z" fill="#2F2E41"/>
<path opacity="0.2" d="M166.341 383.197L173.192 356.759L179.241 379.572L166.341 383.197Z" fill="black"/>
<path d="M348.637 365.971C346.186 399.736 348.726 414.603 335.198 442.442C322.888 448.467 310.067 453.383 296.886 457.132C295.515 457.518 294.142 457.895 292.766 458.26C275.426 462.848 257.613 465.416 239.684 465.911C238.748 465.936 237.829 465.952 236.942 465.968C236.628 465.976 236.322 465.984 236.015 465.984C235.007 465.992 234.008 466 233 466C214.105 466.014 195.279 463.732 176.935 459.204C175.097 458.752 173.267 458.276 171.444 457.776C161.847 455.156 152.429 451.917 143.251 448.078C138.413 446.062 133.662 443.888 128.997 441.555C127.94 441.023 126.884 440.491 125.844 439.943C120.499 430.542 117.459 419.11 117.395 405.372C121.095 381.701 340.462 345.558 348.637 365.971Z" fill="#2F2E41"/>
<path opacity="0.2" d="M348.631 371.754C348.756 369.663 348.896 367.504 349.059 365.256C340.884 344.842 121.517 380.985 117.817 404.656C117.827 406.826 117.92 408.932 118.076 410.989C127.038 387.625 335.439 353.274 348.631 371.754Z" fill="black"/>
<path d="M131.492 275.852C131.546 275.121 131.442 274.387 131.188 273.7C130.934 273.013 130.536 272.387 130.02 271.867C129.504 271.346 128.883 270.942 128.197 270.682C127.512 270.421 126.779 270.311 126.048 270.357C125.775 270.368 125.504 270.402 125.238 270.459L93.1803 277.701C92.464 277.875 91.792 278.196 91.2076 278.646C90.6231 279.095 90.1393 279.661 89.7871 280.309C89.317 280.327 88.8501 280.395 88.3945 280.511C87.3969 280.738 86.4536 281.158 85.6185 281.749C84.7834 282.339 84.0727 283.089 83.5272 283.954C82.9817 284.819 82.612 285.784 82.4391 286.792C82.2663 287.8 82.2937 288.832 82.5198 289.83C82.7459 290.827 83.1663 291.771 83.757 292.606C84.3476 293.441 85.097 294.152 85.9623 294.697C87.7098 295.799 89.8235 296.161 91.8382 295.705C92.985 295.439 94.0578 294.919 94.9781 294.185L105.841 324.774C106.384 325.733 107.222 326.49 108.231 326.933C109.239 327.375 110.364 327.48 111.437 327.23L132.277 322.52C133.342 322.271 134.3 321.691 135.014 320.863C135.729 320.035 136.162 319.002 136.253 317.912L131.492 275.852ZM91.3571 293.527C89.9182 293.852 88.4093 293.592 87.1613 292.806C85.9132 292.02 85.0279 290.771 84.6994 289.333C84.371 287.895 84.6261 286.385 85.409 285.135C86.1918 283.885 87.4385 282.996 88.8756 282.664C88.9768 282.639 89.0782 282.664 89.1794 282.639C89.1718 283.561 89.4076 284.47 89.8632 285.272L93.8386 292.21C93.1465 292.867 92.2886 293.322 91.3571 293.527Z" fill="#2F2E41"/>
<path d="M126.048 270.357C126.352 274.409 119.414 279.068 110.121 280.917C101.587 282.664 93.9399 281.448 91.7875 278.258C92.2201 278.001 92.69 277.813 93.1803 277.701L125.238 270.459C125.504 270.402 125.775 270.368 126.048 270.357Z" fill="#3F3D56"/>
<path d="M103.877 373.207L121.883 364.204L106.878 323.691L102.924 303.259C102.41 300.605 101.208 298.132 99.4395 296.087C97.6705 294.042 95.3958 292.498 92.8429 291.608C90.2899 290.718 87.5481 290.513 84.8913 291.015C82.2345 291.516 79.7559 292.706 77.7031 294.466C74.6611 297.073 72.7511 300.76 72.3761 304.749C72.0012 308.738 73.1907 312.717 75.6935 315.845L90.3727 334.194L103.877 373.207Z" fill="#A0616A"/>
<path d="M121.883 356.702L97.8752 368.706L116.095 425.794C117.403 429.893 119.748 433.585 122.904 436.512C126.059 439.438 129.916 441.499 134.102 442.496C139.264 443.725 144.683 443.278 149.574 441.22C154.464 439.162 158.573 435.6 161.302 431.05L209.616 348.239C213.039 342.533 214.096 335.714 212.56 329.239C211.024 322.764 207.018 317.146 201.396 313.586C198.372 311.671 194.979 310.414 191.437 309.897C187.896 309.38 184.285 309.615 180.84 310.586C177.396 311.556 174.194 313.242 171.443 315.532C168.693 317.822 166.455 320.665 164.877 323.877L135.388 386.712L121.883 356.702Z" fill="#3F3D56"/>
<path d="M114.458 305.11C114.413 305.11 114.369 305.103 114.327 305.088L109.085 303.284C109.022 303.262 108.965 303.225 108.919 303.176C108.874 303.126 108.842 303.067 108.825 303.002C108.809 302.937 108.809 302.869 108.825 302.804C108.841 302.739 108.874 302.679 108.919 302.63L112.818 298.386C112.853 298.346 112.896 298.315 112.944 298.292C112.993 298.269 113.045 298.257 113.098 298.254C113.151 298.252 113.204 298.26 113.253 298.278C113.303 298.296 113.349 298.324 113.388 298.36C113.427 298.396 113.459 298.439 113.481 298.487C113.503 298.535 113.516 298.587 113.518 298.64C113.52 298.693 113.512 298.746 113.494 298.796C113.475 298.846 113.447 298.891 113.411 298.93L109.929 302.721L114.589 304.326C114.679 304.357 114.755 304.419 114.804 304.501C114.853 304.583 114.871 304.68 114.855 304.774C114.84 304.868 114.791 304.953 114.718 305.015C114.645 305.076 114.553 305.11 114.458 305.11Z" fill="#0284C7"/>
<path d="M121.642 303.639C121.562 303.639 121.484 303.616 121.417 303.571C121.351 303.526 121.299 303.462 121.269 303.388C121.239 303.313 121.231 303.231 121.248 303.153C121.265 303.074 121.304 303.002 121.362 302.947L124.905 299.521L120.146 297.56C120.097 297.54 120.052 297.51 120.015 297.473C119.977 297.435 119.947 297.391 119.927 297.342C119.906 297.293 119.896 297.241 119.896 297.188C119.896 297.135 119.906 297.082 119.926 297.033C119.946 296.984 119.976 296.94 120.013 296.902C120.051 296.865 120.095 296.835 120.144 296.815C120.193 296.795 120.245 296.784 120.298 296.784C120.351 296.784 120.404 296.795 120.453 296.815L125.781 299.011C125.843 299.036 125.898 299.077 125.94 299.128C125.983 299.18 126.011 299.242 126.024 299.308C126.037 299.373 126.033 299.441 126.012 299.505C125.992 299.569 125.956 299.626 125.908 299.673L121.923 303.526C121.848 303.599 121.747 303.64 121.642 303.639Z" fill="#0284C7"/>
<path d="M115.558 307.576C115.518 307.576 115.478 307.57 115.439 307.558C115.389 307.543 115.342 307.517 115.301 307.483C115.26 307.45 115.226 307.408 115.202 307.361C115.177 307.315 115.161 307.263 115.156 307.211C115.151 307.158 115.157 307.105 115.173 307.054L118.893 294.961C118.925 294.859 118.996 294.774 119.09 294.724C119.185 294.674 119.295 294.664 119.397 294.696C119.499 294.727 119.584 294.798 119.634 294.892C119.684 294.986 119.695 295.096 119.664 295.198L115.943 307.292C115.918 307.374 115.867 307.446 115.797 307.497C115.728 307.549 115.644 307.576 115.558 307.576Z" fill="#0284C7"/>
</g>
<defs>
<clipPath id="clip0_251_217">
<rect width="466" height="466" fill="white"/>
</clipPath>
</defs>
</svg>
